<svg width="238" height="248" viewBox="0 0 238 248" fill="none" xmlns="http://www.w3.org/2000/svg">
<path d="M211.447 188.519L211.443 188.631L217.03 247.717H176.256L170.971 211.428L168.645 246.786L126.773 246.321L131.221 199.899L135.004 178.382V178.377L135.571 175.139H210.335L210.433 176.312L211.447 188.519Z" fill="#2F2E41"/>
<path d="M103.693 222.772C108.012 223.558 112.515 218.695 113.751 211.909C114.292 208.939 114.117 206.093 113.388 203.765L114.05 199.853L125.162 147.23C125.162 147.23 145.623 106.3 145.622 99.1947C145.622 92.0891 139.704 88.6045 139.704 88.6045L131.695 88.6794L106.58 150.02L102.057 195.348L101.325 201.567C99.8214 203.488 98.6541 206.09 98.1131 209.06C96.8768 215.846 99.3752 221.985 103.693 222.772Z" fill="#FFB6B6"/>
<path d="M185.161 63.2486L177.717 46.0347L153.525 50.2218L151.896 70.4745L185.161 63.2486Z" fill="#FFB6B6"/>
<path opacity="0.1" d="M185.161 63.2486L177.717 46.0347L153.525 50.2218L151.896 70.4745L185.161 63.2486Z" fill="black"/>
<path d="M237.735 99.0722C237.735 99.0722 220.521 66.9706 217.264 63.7139C215.815 62.2641 213.536 62.244 211.452 62.6665L187.489 54.4091L179.367 49.8455L178.832 58.5278L152.166 63.3139C152.314 58.0191 153.061 56.0051 153.061 56.0051L143.291 67.4359L124.216 76.7407L124.227 76.8244C122.827 77.3131 121.5 78.1492 120.494 79.5321C116.772 84.6498 106.537 146.992 106.537 146.992L128.403 151.644L131.379 132.97L133.521 149.784L135.149 181.187C135.149 181.187 164.925 206.776 179.347 197.471C193.77 188.166 211.449 188.631 211.449 188.631L211.89 174.075C212.204 173.573 212.379 173.278 212.379 173.278L211.914 121.644V107.904C215.459 112.842 219.736 117.089 224.708 119.078C240.992 125.591 237.735 99.0723 237.735 99.0723V99.0722Z" fill="#E6E6E6"/>
<path d="M163.092 53.2506C175.384 53.2506 185.349 43.2861 185.349 30.9942C185.349 18.7023 175.384 8.73779 163.092 8.73779C150.8 8.73779 140.836 18.7023 140.836 30.9942C140.836 43.2861 150.8 53.2506 163.092 53.2506Z" fill="#FFB6B6"/>
<path d="M179.06 37.2842C179.06 37.2842 180.995 30.5105 185.35 30.9943C189.704 31.4782 190.672 27.6075 189.704 25.6721C188.737 23.7368 186.801 14.0601 186.801 14.0601C186.801 14.0601 187.769 7.28639 181.963 6.31872C176.157 5.35105 174.222 4.38338 173.254 2.44804C172.286 0.512693 157.771 -1.42265 152.933 1.48037C148.095 4.38338 144.224 9.9532 140.837 11.5228C137.45 13.0924 134.547 15.9954 136.483 20.8338C138.418 25.6721 141.225 35.1349 141.225 35.1349C141.225 35.1349 146.159 33.4135 147.127 36.3165C148.095 39.2195 144.224 35.3488 149.062 27.6075C153.901 19.8661 153.901 12.1247 161.642 15.0278C169.383 17.9308 178.092 16.9631 177.125 22.7691C176.157 28.5751 179.06 37.2842 179.06 37.2842V37.2842Z" fill="#2F2E41"/>
<path d="M177.699 213.724H8.66894C3.88879 213.724 0 209.835 0 205.055V115.267C0 110.487 3.88879 106.598 8.66894 106.598H177.699C182.479 106.598 186.368 110.487 186.368 115.267V205.055C186.368 209.835 182.479 213.724 177.699 213.724Z" fill="white"/>
<path d="M177.699 213.724H8.66894C3.88879 213.724 0 209.835 0 205.055V115.267C0 110.487 3.88879 106.598 8.66894 106.598H177.699C182.479 106.598 186.368 110.487 186.368 115.267V205.055C186.368 209.835 182.479 213.724 177.699 213.724ZM8.66894 108.046C4.68719 108.046 1.44765 111.285 1.44765 115.267V205.055C1.44765 209.037 4.68719 212.277 8.66894 212.277H177.699C181.68 212.277 184.92 209.037 184.92 205.055V115.267C184.92 111.285 181.68 108.046 177.699 108.046H8.66894Z" fill="#3F3D56"/>
<path d="M164.652 117.456C165.851 117.456 166.823 116.483 166.823 115.284C166.823 114.085 165.851 113.113 164.652 113.113C163.453 113.113 162.48 114.085 162.48 115.284C162.48 116.483 163.453 117.456 164.652 117.456Z" fill="#3F3D56"/>
<path d="M170.443 117.456C171.642 117.456 172.614 116.483 172.614 115.284C172.614 114.085 171.642 113.113 170.443 113.113C169.244 113.113 168.271 114.085 168.271 115.284C168.271 116.483 169.244 117.456 170.443 117.456Z" fill="#3F3D56"/>
<path d="M176.234 117.456C177.433 117.456 178.405 116.483 178.405 115.284C178.405 114.085 177.433 113.113 176.234 113.113C175.035 113.113 174.062 114.085 174.062 115.284C174.062 116.483 175.035 117.456 176.234 117.456Z" fill="#3F3D56"/>
<path d="M12.3045 150.39C11.7058 150.39 11.2188 150.877 11.2188 151.475C11.2188 151.767 11.3315 152.037 11.5361 152.237C11.7425 152.448 12.0129 152.561 12.3045 152.561H174.786C175.384 152.561 175.872 152.074 175.872 151.475C175.872 151.183 175.759 150.913 175.554 150.714C175.348 150.503 175.077 150.39 174.786 150.39H12.3045Z" fill="#E6E6E6"/>
<path d="M154.519 150.028V152.923H12.3051C11.907 152.923 11.5451 152.764 11.2845 152.496C11.0166 152.235 10.8574 151.874 10.8574 151.475C10.8574 150.679 11.5089 150.028 12.3051 150.028H154.519Z" fill="#009EDD"/>
<path d="M172.977 144.599H158.501C156.904 144.599 155.605 143.3 155.605 141.704C155.605 140.107 156.904 138.808 158.501 138.808H172.977C174.574 138.808 175.873 140.107 175.873 141.704C175.873 143.3 174.574 144.599 172.977 144.599Z" fill="#E6E6E6"/>
<path d="M78.1563 129.399H13.3914C11.7949 129.399 10.4961 128.1 10.4961 126.503C10.4961 124.906 11.7949 123.608 13.3914 123.608H78.1563C79.7527 123.608 81.0516 124.906 81.0516 126.503C81.0516 128.1 79.7527 129.399 78.1563 129.399Z" fill="#E6E6E6"/>
<path d="M12.3045 182.962C11.7058 182.962 11.2188 183.449 11.2188 184.047C11.2188 184.339 11.3315 184.609 11.5361 184.809C11.7425 185.02 12.0129 185.133 12.3045 185.133H174.786C175.384 185.133 175.872 184.646 175.872 184.047C175.872 183.755 175.759 183.485 175.554 183.286C175.348 183.075 175.077 182.962 174.786 182.962H12.3045Z" fill="#E6E6E6"/>
<path d="M98.7847 182.6V185.495H12.3051C11.907 185.495 11.5451 185.336 11.2845 185.068C11.0166 184.808 10.8574 184.446 10.8574 184.048C10.8574 183.251 11.5089 182.6 12.3051 182.6H98.7847Z" fill="#009EDD"/>
<path d="M172.977 177.171H158.501C156.904 177.171 155.605 175.873 155.605 174.276C155.605 172.679 156.904 171.381 158.501 171.381H172.977C174.574 171.381 175.873 172.679 175.873 174.276C175.873 175.873 174.574 177.171 172.977 177.171Z" fill="#E6E6E6"/>
<path d="M198.32 54.9639C210.84 54.9639 220.989 45.0282 220.989 32.772C220.989 20.5157 210.84 10.5801 198.32 10.5801C185.8 10.5801 175.65 20.5157 175.65 32.772C175.65 45.0282 185.8 54.9639 198.32 54.9639Z" fill="#009EDD"/>
<path d="M206.014 21.5781C202.996 27.0736 199.978 32.5691 196.96 38.0646C195.036 34.6661 193.123 31.2615 191.195 27.8656C190.529 26.6928 188.718 27.7476 189.386 28.9234C191.621 32.86 193.833 36.8097 196.068 40.7464C196.45 41.4195 197.5 41.4351 197.878 40.7464C201.193 34.7095 204.508 28.6727 207.824 22.6359C208.473 21.453 206.664 20.3943 206.014 21.5781Z" fill="white"/>
<path d="M229.614 91.267L207.028 80.4625C207.028 80.4625 206.121 73.231 201.885 70.6516C201.165 68.9337 200.337 67.0464 199.584 65.551C197.723 61.8529 200.514 54.8743 198.188 54.8743C195.862 54.8743 192.423 62.2136 192.605 64.1791C192.745 65.6878 193.992 68.3219 194.25 70.6278C191.413 71.6976 189.125 73.5312 187.62 74.9913C186.318 76.2547 185.834 78.1398 186.343 79.8813C187.818 84.9278 191.503 95.3502 196.793 95.3502C203.771 95.3502 205.632 93.9545 205.632 93.9545C205.632 93.9545 220.055 112.099 230.755 113.495C241.456 114.89 229.614 91.267 229.614 91.267V91.267Z" fill="#FFB6B6"/>
</svg>
